<?xml version="1.0" encoding="UTF-8"?>
<!DOCTYPE svg PUBLIC "-//W3C//DTD SVG 1.1//EN" "http://www.w3.org/Graphics/SVG/1.1/DTD/svg11.dtd">
<!-- Creator: CorelDRAW -->
<svg xmlns="http://www.w3.org/2000/svg" xml:space="preserve" width="2048px" height="2048px" style="shape-rendering:geometricPrecision; text-rendering:geometricPrecision; image-rendering:optimizeQuality; fill-rule:evenodd; clip-rule:evenodd"
viewBox="0 0 2048 2048"
 xmlns:xlink="http://www.w3.org/1999/xlink">
 <defs>
  <style type="text/css">
   <![CDATA[
    .fil1 {fill:none}
    .fil0 {fill:#424242;fill-rule:nonzero}
   ]]>
  </style>
 </defs>
 <g id="Layer_x0020_1">
  <metadata id="CorelCorpID_0Corel-Layer"/>
  <g id="_341224960">
   <path id="_341225560" class="fil0" d="M1024 892.644c102.534,0 195.729,41.9244 263.271,109.468 67.5438,67.5438 109.468,160.739 109.468,263.273l0 183.706c0,52.0158 -21.2575,99.2824 -55.5036,133.53 -34.2485,34.2461 -81.515,55.5036 -133.531,55.5036l-367.412 0c-52.0158,0 -99.2824,-21.2575 -133.53,-55.5036 -34.2461,-34.2473 -55.5036,-81.5138 -55.5036,-133.53l0 -183.706c0,-102.534 41.9244,-195.729 109.468,-263.273 67.5426,-67.5438 160.738,-109.468 263.271,-109.468z"/>
   <path id="_341225296" class="fil0" d="M1024 409.875c64.8095,0 123.488,26.2725 165.963,68.7485 42.476,42.4748 68.7485,101.153 68.7485,165.963 0,64.8083 -26.2725,123.487 -68.7485,165.962 -42.4748,42.476 -101.153,68.7485 -165.963,68.7485 -64.8095,0 -123.488,-26.2725 -165.963,-68.7485 -42.476,-42.4748 -68.7485,-101.153 -68.7485,-165.962 0,-64.8095 26.2725,-123.488 68.7485,-165.963 42.4748,-42.476 101.153,-68.7485 165.963,-68.7485z"/>
  </g>
  <g id="_341224840">
   <g>
    <path id="_341225272" class="fil0" d="M1504 924.09c80.8087,0 154.257,33.0414 207.488,86.2737 53.2323,53.2323 86.2737,126.68 86.2737,207.488l0 144.782c0,40.9949 -16.7528,78.2457 -43.7433,105.236 -26.9918,26.9906 -64.2426,43.7433 -105.237,43.7433l-229.097 0c5.95158,-20.0906 9.05552,-41.1166 9.05552,-62.5229l0 -183.706c0,-102.917 -39.1807,-200.967 -109.114,-275.829 50.4922,-40.8945 114.696,-65.465 184.375,-65.465z"/>
    <path id="_341225344" class="fil0" d="M1504 543.613c51.0768,0 97.3229,20.7059 130.798,54.1819 33.476,33.4748 54.1819,79.7197 54.1819,130.798 0,51.0756 -20.7059,97.3217 -54.1819,130.797 -33.4748,33.476 -79.7209,54.1808 -130.798,54.1808 -51.0768,0 -97.3229,-20.7047 -130.798,-54.1808 -33.476,-33.4748 -54.1819,-79.7209 -54.1819,-130.797 0,-51.078 20.7059,-97.3229 54.1819,-130.798 33.4748,-33.476 79.7209,-54.1819 130.798,-54.1819z"/>
   </g>
   <g>
    <path id="_341225128" class="fil0" d="M544 924.09c69.6792,0 133.883,24.5705 184.375,65.465 -69.9331,74.8619 -109.114,172.912 -109.114,275.829l0 183.706c0,21.4063 3.10394,42.4323 9.05552,62.5229l-229.099 0c-40.9937,0 -78.2457,-16.7528 -105.236,-43.7433 -26.9906,-26.9906 -43.7433,-64.2414 -43.7433,-105.236l0 -144.782c0,-80.8075 33.0414,-154.256 86.2737,-207.488 53.2311,-53.2323 126.679,-86.2737 207.488,-86.2737z"/>
    <path id="_341224768" class="fil0" d="M544 543.613c51.0768,0 97.3229,20.7059 130.798,54.1819 33.476,33.4748 54.1819,79.7197 54.1819,130.798 0,51.0756 -20.7059,97.3217 -54.1819,130.797 -33.4748,33.476 -79.7209,54.1808 -130.798,54.1808 -51.0768,0 -97.3229,-20.7047 -130.798,-54.1808 -33.476,-33.4748 -54.1819,-79.7209 -54.1819,-130.797 0,-51.078 20.7059,-97.3229 54.1819,-130.798 33.4748,-33.476 79.7209,-54.1819 130.798,-54.1819z"/>
   </g>
  </g>
 </g>
 <rect class="fil1" width="2048" height="2048"/>
</svg>
